<svg width="480" height="588" viewBox="0 0 480 588" fill="none" xmlns="http://www.w3.org/2000/svg">
<path d="M186.842 231.455V208.577C179.591 207.53 172.219 206.875 164.605 206.875C73.8425 206.746 0 286.629 0 384.949C0 445.221 27.7967 498.565 70.3377 530.859C42.9036 499.089 26.1047 456.334 26.1047 409.529C26.1047 312.647 97.8926 233.678 186.842 231.455Z" fill="#FF165D"/>
<path d="M190.809 490.811C231.296 490.811 264.41 455.904 265.861 412.497L265.982 24.5799H331.485C330.155 16.6044 329.43 8.36766 329.43 0H239.997L239.876 387.917C238.427 431.324 205.311 466.232 164.826 466.232C152.257 466.232 140.413 462.833 129.898 456.818C143.434 477.345 165.672 490.811 190.809 490.811Z" fill="#FF165D"/>
<path d="M453.927 156.27V134.699C428.911 134.699 405.705 126.723 386.127 112.863C403.53 134.437 427.096 150.127 453.927 156.27Z" fill="#FF165D"/>
<path d="M386.163 112.804C367.067 89.1401 355.586 58.2845 355.586 24.5527H331.658C337.82 61.4225 358.125 93.0628 386.163 112.804Z" fill="#3EC1D3"/>
<path d="M164.703 303.472C123.25 303.472 89.5312 339.95 89.5312 384.795C89.5312 416.043 105.967 443.237 129.897 456.835C120.954 443.499 115.636 427.156 115.636 409.374C115.636 364.53 149.354 328.052 190.808 328.052C198.543 328.052 206.035 329.489 213.045 331.843V233.002C205.793 231.955 198.422 231.301 190.808 231.301C189.478 231.301 188.27 231.432 186.94 231.432V307.263C179.81 304.909 172.438 303.472 164.703 303.472Z" fill="#3EC1D3"/>
<path d="M453.897 156.203V231.38C407.489 231.38 364.465 215.3 329.415 188.104V384.874C329.415 483.063 255.574 563.079 164.69 563.079C129.642 563.079 97.0117 551.05 70.3027 530.785C100.396 565.692 143.299 587.659 190.796 587.659C281.557 587.659 355.521 507.774 355.521 409.454V212.684C390.568 239.88 433.593 255.96 480.001 255.96V159.211C470.937 159.211 462.236 158.164 453.897 156.203Z" fill="#3EC1D3"/>
<path d="M329.457 384.882V188.112C364.506 215.308 407.53 231.388 453.939 231.388V156.211C427.108 150.067 403.542 134.378 386.139 112.804C358.1 93.0628 337.918 61.4225 331.511 24.5527H266.009L265.887 412.468C264.438 455.875 231.322 490.785 190.837 490.785C165.699 490.785 143.582 477.318 129.805 456.922C105.876 443.193 89.4394 416.131 89.4394 384.882C89.4394 340.037 123.158 303.559 164.611 303.559C172.346 303.559 179.839 304.997 186.849 307.351V231.519C97.8993 233.611 26.1113 312.58 26.1113 409.462C26.1113 456.268 42.9102 498.891 70.3442 530.792C97.0532 551.057 129.684 563.086 164.732 563.086C255.495 563.086 329.457 483.07 329.457 384.882Z" fill="black"/>
</svg>
